<?xml version="1.0" standalone="no"?>
<!DOCTYPE svg PUBLIC "-//W3C//DTD SVG 20010904//EN"
 "http://www.w3.org/TR/2001/REC-SVG-20010904/DTD/svg10.dtd">
<svg version="1.0" xmlns="http://www.w3.org/2000/svg"
 width="1089.000000pt" height="980.000000pt" viewBox="0 0 1089.000000 980.000000"
 preserveAspectRatio="xMidYMid meet">

<g transform="translate(0.000000,980.000000) scale(0.100000,-0.100000)"
fill="#000000" stroke="none">
<path d="M5160 8154 c-111 -23 -375 -107 -394 -125 -6 -5 -16 -9 -23 -9 -11 0
-75 -26 -158 -65 l-30 -14 33 0 c20 -1 31 3 27 9 -3 6 -1 10 4 10 6 0 11 -3
11 -8 0 -4 57 -2 128 5 70 6 226 15 347 18 121 4 225 12 232 17 7 5 17 6 24 2
11 -6 442 -25 639 -28 47 -1 87 -4 90 -7 4 -6 261 -28 268 -24 4 3 -194 83
-323 131 -66 25 -176 58 -245 75 -114 29 -142 32 -320 35 -176 2 -206 0 -310
-22z m393 -1 c-7 -2 -19 -2 -25 0 -7 3 -2 5 12 5 14 0 19 -2 13 -5z m-330 -10
c-7 -2 -21 -2 -30 0 -10 3 -4 5 12 5 17 0 24 -2 18 -5z m-65 -12 c9 -5 4 -8
-16 -7 -17 1 -28 4 -25 9 6 9 25 9 41 -2z m435 2 c-7 -2 -21 -2 -30 0 -10 3
-4 5 12 5 17 0 24 -2 18 -5z m177 -3 c18 -12 2 -12 -25 0 -13 6 -15 9 -5 9 8
0 22 -4 30 -9z m-783 -46 c-3 -3 -12 -4 -19 -1 -8 3 -5 6 6 6 11 1 17 -2 13
-5z m1018 -23 c3 -5 2 -12 -3 -15 -5 -3 -9 1 -9 9 0 17 3 19 12 6z m-1098 -47
c-3 -3 -12 -4 -19 -1 -8 3 -5 6 6 6 11 1 17 -2 13 -5z m290 0 c-3 -3 -12 -4
-19 -1 -8 3 -5 6 6 6 11 1 17 -2 13 -5z m396 -1 c-7 -2 -19 -2 -25 0 -7 3 -2
5 12 5 14 0 19 -2 13 -5z m-180 -10 c-7 -2 -21 -2 -30 0 -10 3 -4 5 12 5 17 0
24 -2 18 -5z m752 -3 c3 -6 -1 -7 -9 -4 -18 7 -21 14 -7 14 6 0 13 -4 16 -10z
m-1192 -7 c-7 -2 -21 -2 -30 0 -10 3 -4 5 12 5 17 0 24 -2 18 -5z m210 0 c-13
-2 -33 -2 -45 0 -13 2 -3 4 22 4 25 0 35 -2 23 -4z m-486 -19 c-3 -3 -12 -4
-19 -1 -8 3 -5 6 6 6 11 1 17 -2 13 -5z m1482 -10 c10 -9 -35 -3 -49 6 -11 8
-7 9 15 4 17 -4 32 -8 34 -10z m-1522 0 c-3 -3 -12 -4 -19 -1 -8 3 -5 6 6 6
11 1 17 -2 13 -5z"/>
<path d="M4117 7732 c-21 -14 -36 -27 -34 -29 2 -2 78 -14 168 -28 344 -50
775 -153 1068 -253 l55 -18 -100 -39 c-246 -94 -568 -236 -823 -365 l-118 -59
-136 24 c-266 47 -557 79 -832 93 -171 9 -174 8 -216 -28 l-34 -29 80 -1 c107
0 347 -17 525 -35 177 -18 492 -65 502 -74 4 -4 -81 -58 -189 -120 -515 -296
-992 -625 -1488 -1025 -96 -78 -209 -173 -404 -341 -52 -44 -107 -85 -122 -92
-16 -7 -29 -16 -29 -21 0 -4 -19 -17 -42 -27 -29 -13 -37 -20 -25 -23 9 -2 17
-7 17 -11 0 -9 -73 -81 -83 -81 -14 0 -7 28 13 53 20 25 14 42 -12 32 -7 -3
-22 -18 -32 -34 -15 -21 -30 -30 -59 -34 -77 -11 -176 -101 -165 -152 3 -17
12 -20 50 -19 l47 0 -106 -110 c-59 -61 -111 -114 -117 -117 -6 -4 -74 -9
-151 -13 -240 -10 -440 -28 -447 -40 -4 -6 -8 -30 -8 -53 l0 -43 38 1 c20 1
89 6 152 13 103 10 111 12 71 19 -71 12 -42 17 38 6 52 -7 105 -7 179 1 57 6
106 10 107 8 6 -5 -27 -373 -34 -380 -3 -3 -127 -11 -276 -18 -148 -6 -276
-13 -282 -15 -7 -3 -13 -18 -13 -35 0 -25 4 -30 23 -30 12 1 139 7 282 14 143
8 261 13 262 12 5 -5 -71 -881 -77 -888 -3 -5 -125 -1 -270 7 -146 8 -271 15
-277 15 -8 0 -13 -13 -13 -34 l0 -34 163 -7 c89 -4 214 -10 277 -14 l115 -6
-2 -30 c-4 -70 -46 -580 -48 -583 -3 -3 -299 72 -442 112 -51 14 -94 26 -97
26 -13 0 -5 -129 9 -156 21 -41 19 -64 -5 -64 -11 0 -20 -7 -20 -15 0 -21 15
-19 70 11 30 16 50 34 52 48 6 30 -1 46 -19 46 -24 0 -9 25 17 28 13 2 29 11
36 20 14 19 44 9 44 -15 0 -10 9 -24 20 -31 25 -15 28 -47 4 -38 -22 8 -44
-11 -43 -38 1 -35 53 -110 83 -121 30 -10 61 3 61 26 0 10 -12 14 -39 14 -46
0 -55 16 -27 44 28 28 94 28 121 1 63 -63 2 -161 -91 -148 -25 4 -33 1 -36
-13 -5 -19 -40 -36 -51 -24 -4 4 -7 25 -7 48 0 33 -4 42 -19 45 -39 8 -64 -65
-26 -75 28 -8 25 -21 -7 -29 -15 -4 -34 -14 -42 -21 -18 -18 -33 -12 -49 20
-7 15 -17 27 -21 27 -5 0 -11 9 -14 19 -4 16 0 19 21 18 20 -2 28 4 36 24 13
39 2 61 -26 50 -13 -4 -25 -17 -27 -27 -1 -11 -9 -26 -16 -34 -12 -13 -19 -54
-16 -86 1 -13 210 -95 411 -160 523 -172 1245 -323 1978 -414 344 -42 788 -83
845 -76 26 3 45 1 43 -3 -3 -4 101 -14 232 -20 130 -7 253 -15 272 -19 19 -4
449 -6 955 -6 943 1 1079 5 1650 49 1160 88 2105 261 2744 500 149 56 273 113
245 114 -12 1 -25 8 -28 17 -8 21 -8 26 2 20 19 -11 34 12 27 43 -8 36 -17 44
-40 35 -14 -6 -16 -15 -11 -45 5 -31 3 -40 -13 -49 -15 -7 -23 -6 -35 6 -9 8
-16 21 -16 27 0 8 -18 12 -48 12 -52 0 -75 15 -92 59 -11 30 2 72 28 92 40 31
132 3 132 -40 0 -20 -28 -28 -50 -14 -15 10 -22 10 -31 1 -18 -18 7 -43 42
-43 23 0 36 10 64 48 38 52 43 82 19 107 -12 12 -19 13 -30 4 -23 -19 -17 15
6 36 11 10 22 26 25 36 7 22 28 25 47 6 7 -8 26 -17 42 -21 24 -6 28 -4 22 9
-3 9 -6 30 -6 47 0 24 -4 29 -17 25 -88 -26 -454 -119 -457 -116 -2 2 -12 90
-21 194 -9 105 -20 233 -25 285 -5 52 -10 113 -10 136 l0 41 153 7 c83 3 194
9 245 12 l92 7 0 34 c0 32 -2 34 -27 29 -16 -3 -100 -8 -188 -11 -88 -3 -188
-8 -222 -11 l-61 -6 -7 63 c-12 113 -71 830 -69 832 3 2 270 -9 412 -17 l102
-7 0 36 c0 35 -1 35 -42 35 -67 0 -473 21 -476 25 -5 5 -31 292 -32 347 l0 46
38 -4 c20 -2 109 -11 197 -20 88 -8 189 -19 224 -23 l63 -8 -4 49 c-3 27 -7
50 -9 53 -3 2 -122 12 -264 21 l-260 16 -245 242 c-703 692 -1534 1323 -2357
1789 -90 52 -156 95 -150 98 43 24 545 84 841 101 l209 12 -34 28 c-30 25 -41
28 -107 28 -171 0 -629 -49 -890 -95 l-133 -24 -207 102 c-272 135 -574 266
-807 351 -18 7 -16 9 14 22 52 22 317 98 496 143 194 48 371 83 569 114 l150
23 -37 28 -36 28 -138 -22 c-332 -52 -745 -153 -1057 -260 l-90 -30 -135 44
c-399 130 -714 203 -1166 269 -12 2 -38 -8 -58 -21z m1535 -428 c317 -122 854
-367 843 -384 -3 -4 -22 -11 -42 -14 -165 -30 -564 -144 -813 -233 -85 -31
-159 -56 -165 -55 -5 0 -82 26 -170 57 -206 73 -435 142 -655 195 -96 24 -182
45 -190 47 -25 8 411 216 665 318 68 27 348 134 352 135 1 0 80 -30 175 -66z
m-1199 -454 c121 -27 306 -74 437 -111 122 -35 459 -146 477 -157 7 -4 -40
-29 -115 -61 -242 -102 -589 -281 -827 -424 -350 -211 -772 -527 -1049 -784
-44 -40 -85 -73 -92 -73 -8 0 -12 11 -11 28 3 38 -24 35 -44 -5 -23 -47 -39
-63 -60 -63 -25 0 -31 14 -19 46 13 32 40 55 58 49 17 -6 15 24 -3 31 -8 4
-15 15 -15 25 0 26 -14 24 -46 -6 -15 -14 -32 -25 -39 -25 -7 0 -18 -7 -25
-15 -10 -12 -10 -15 3 -15 25 0 28 -15 12 -53 -16 -38 -41 -53 -61 -36 -11 9
-11 17 1 47 9 19 13 37 11 39 -11 12 -46 -11 -58 -37 -10 -24 -19 -30 -44 -30
-66 0 -157 -90 -146 -146 8 -44 78 -43 132 3 49 41 36 71 -16 36 -22 -14 -27
-14 -34 -2 -11 18 22 55 57 64 30 7 57 -13 79 -61 14 -29 14 -35 0 -63 -9 -17
-27 -33 -41 -37 -28 -7 -33 -22 -10 -30 8 -4 15 -14 15 -24 0 -10 5 -20 12
-22 6 -2 -8 -27 -34 -60 l-46 -56 -143 -2 c-79 -1 -225 -6 -324 -11 -99 -5
-222 -9 -272 -8 -51 0 -93 -3 -93 -8 0 -4 -88 -9 -196 -10 -110 -1 -201 -7
-208 -12 -7 -6 -17 -6 -26 -1 -8 5 -18 6 -22 4 -14 -9 -48 -13 -48 -6 0 4 34
42 75 85 50 54 79 78 92 75 10 -2 17 -10 15 -16 -4 -22 28 -25 51 -4 12 11 32
23 44 26 11 4 27 14 35 23 11 14 11 16 -1 9 -20 -12 -31 13 -18 41 11 25 130
108 179 125 35 12 63 -7 52 -35 -8 -21 -43 -32 -57 -18 -27 27 -64 -10 -52
-49 5 -16 15 -20 50 -20 36 0 52 6 81 32 79 69 76 148 -5 148 -18 0 -19 3 -9
25 6 14 8 28 5 31 -9 9 -57 -24 -57 -38 0 -21 -43 -58 -67 -58 -13 0 -23 3
-22 8 1 8 168 160 329 299 459 393 958 763 1425 1055 102 63 413 248 419 248
1 0 47 25 101 55 55 30 103 55 108 55 4 0 49 -9 100 -20z m2304 -62 c302 -166
776 -465 1033 -651 385 -278 1096 -857 1052 -857 -7 0 -22 11 -34 25 -12 14
-25 25 -30 25 -5 0 -13 -11 -18 -25 -5 -14 -14 -25 -20 -25 -5 0 -10 -7 -10
-16 0 -8 4 -13 9 -10 14 9 48 -26 59 -61 10 -32 10 -33 -15 -33 -28 0 -52 24
-53 52 0 9 -7 24 -16 33 -22 21 -46 2 -38 -30 5 -19 2 -22 -18 -18 -38 7 -72
-27 -72 -72 0 -74 111 -137 158 -89 18 17 19 24 10 48 -7 18 -44 22 -44 5 0
-6 -10 -9 -22 -7 -17 2 -24 11 -26 31 -3 28 5 32 53 27 31 -3 126 -81 140
-114 15 -34 9 -60 -11 -52 -27 10 -14 -15 14 -27 15 -6 34 -21 43 -31 17 -20
56 -16 44 5 -4 6 2 13 14 16 26 7 28 33 2 33 -10 0 -23 6 -29 13 -17 21 -25
65 -13 79 6 7 20 25 32 41 12 15 30 27 43 27 20 0 76 -46 76 -63 0 -13 -33 -7
-52 10 -14 13 -21 14 -30 5 -31 -31 103 -110 138 -81 12 10 35 -9 132 -105 92
-91 114 -118 102 -125 -8 -6 -18 -7 -22 -4 -5 2 -14 1 -21 -5 -19 -14 -49 -23
-42 -12 3 6 13 10 22 10 9 0 14 2 11 6 -3 3 -67 7 -143 10 -76 2 -147 6 -159
9 -11 2 -100 7 -196 10 -96 3 -283 10 -415 15 -265 10 -361 10 -250 0 l70 -6
-61 -2 c-34 -1 -72 4 -86 10 -13 7 -55 49 -93 93 -38 44 -101 113 -139 153
-39 40 -72 77 -74 81 -2 5 9 19 25 30 39 32 103 13 103 -30 0 -28 -15 -31 -45
-7 -38 30 -53 5 -21 -36 42 -54 114 -58 136 -7 23 58 -36 132 -117 147 -18 3
-33 12 -33 18 0 23 -27 49 -43 43 -13 -5 -14 -11 -4 -36 9 -26 9 -34 -5 -47
-22 -22 -54 -4 -62 37 -7 35 -1 49 20 49 24 0 16 19 -15 34 -16 9 -31 22 -34
31 -9 21 -34 19 -41 -3 -4 -11 -17 -25 -30 -32 -23 -12 -30 -7 -121 74 -391
348 -911 698 -1405 946 -96 48 -280 132 -453 207 -21 9 -34 20 -30 24 12 11
319 113 478 158 165 47 488 126 532 130 7 1 79 -36 160 -81z m-1115 -314 c625
-263 1229 -636 1727 -1066 85 -73 156 -139 159 -145 2 -9 -7 -13 -25 -13 -65
0 -101 -67 -69 -128 19 -37 44 -52 85 -52 36 0 61 23 61 56 0 26 -27 33 -47
13 -18 -18 -45 -2 -41 22 8 55 61 49 130 -14 57 -52 75 -104 39 -114 -27 -7
-27 -19 2 -34 12 -6 32 -20 44 -31 21 -20 22 -20 35 1 7 12 18 21 25 21 7 0
13 5 13 11 0 19 15 6 93 -81 56 -62 77 -91 76 -110 -2 -23 -2 -23 -6 -2 -4 20
-10 22 -81 22 -42 0 -252 4 -467 10 -214 5 -531 12 -704 15 -172 3 -316 7
-320 9 -9 5 -1023 11 -1463 8 -352 -2 -378 -3 -379 -19 0 -12 -2 -13 -6 -5 -4
11 -73 12 -362 7 -570 -9 -1133 -25 -1143 -31 -6 -4 -8 1 -6 9 1 9 46 63 98
121 88 96 98 104 133 105 52 1 105 51 114 106 7 49 12 55 148 174 265 232 445
370 710 546 365 242 695 419 1075 579 74 31 144 61 155 66 28 13 45 8 197 -56z
m1988 -1185 c17 -31 7 -33 -20 -4 -19 20 -20 25 -7 25 9 0 21 -9 27 -21z
m1284 -78 c22 -38 15 -64 -16 -59 -25 3 -64 70 -53 88 12 19 50 3 69 -29z
m-5755 -109 c-40 -42 -75 -79 -77 -81 -10 -16 -18 25 -9 43 11 23 148 128 156
120 3 -3 -29 -39 -70 -82z m-1355 9 c7 -10 -28 -43 -37 -35 -4 4 -18 -1 -31
-10 -40 -25 -69 -20 -48 10 24 35 102 58 116 35z m5954 -63 c7 -7 12 -15 12
-20 0 -12 -28 2 -34 18 -7 17 6 18 22 2z m-5943 -52 c-16 -24 -45 -42 -45 -29
0 7 50 53 57 53 2 0 -4 -11 -12 -24z m4573 -171 c-3 -3 -9 2 -12 12 -6 14 -5
15 5 6 7 -7 10 -15 7 -18z m-2271 -17 c-3 -7 -5 -2 -5 12 0 14 2 19 5 13 2 -7
2 -19 0 -25z m20 0 c-3 -7 -5 -2 -5 12 0 14 2 19 5 13 2 -7 2 -19 0 -25z
m2603 17 c0 -8 -2 -15 -4 -15 -2 0 -6 7 -10 15 -3 8 -1 15 4 15 6 0 10 -7 10
-15z m-3303 -1 c-3 -3 -12 -4 -19 -1 -8 3 -5 6 6 6 11 1 17 -2 13 -5z m76 -1
c-7 -2 -19 -2 -25 0 -7 3 -2 5 12 5 14 0 19 -2 13 -5z m305 0 c-10 -2 -26 -2
-35 0 -10 3 -2 5 17 5 19 0 27 -2 18 -5z m2901 -9 c8 -7 -143 -2 -199 6 -35 5
-9 6 70 2 69 -2 127 -6 129 -8z m51 6 c0 -5 -5 -10 -11 -10 -5 0 -7 5 -4 10 3
6 8 10 11 10 2 0 4 -4 4 -10z m87 4 c-3 -3 -12 -4 -19 -1 -8 3 -5 6 6 6 11 1
17 -2 13 -5z m491 -1 c-10 -2 -26 -2 -35 0 -10 3 -2 5 17 5 19 0 27 -2 18 -5z
m-4273 -10 c-16 -3 -37 -10 -45 -16 -13 -10 -13 -10 -1 6 8 10 25 16 45 16
l31 -2 -30 -4z m108 0 c-13 -2 -33 -2 -45 0 -13 2 -3 4 22 4 25 0 35 -2 23 -4z
m906 -2 c11 -7 12 -44 5 -219 -5 -116 -11 -212 -14 -215 -3 -2 -232 -10 -510
-16 -278 -6 -531 -14 -562 -17 l-58 -6 0 45 c0 51 27 340 35 375 4 17 9 21 18
15 7 -6 68 -6 147 -2 147 8 713 28 850 30 64 1 76 3 50 9 -35 7 -35 7 -5 9 17
0 36 -3 44 -8z m194 2 c-23 -2 -64 -2 -90 0 -26 2 -7 3 42 3 50 0 71 -1 48 -3z
m180 0 c-13 -2 -33 -2 -45 0 -13 2 -3 4 22 4 25 0 35 -2 23 -4z m3082 -24
c220 -6 405 -12 412 -12 7 0 14 -22 18 -51 12 -111 35 -379 33 -382 -2 -1
-274 5 -606 14 -594 16 -602 16 -602 37 0 11 -5 107 -10 214 -5 106 -8 196 -6
200 2 3 84 3 183 -1 98 -3 358 -12 578 -19z m-362 24 c-13 -2 -33 -2 -45 0
-13 2 -3 4 22 4 25 0 35 -2 23 -4z m-3796 -9 c-3 -3 -12 -4 -19 -1 -8 3 -5 6
6 6 11 1 17 -2 13 -5z m370 0 c-3 -3 -12 -4 -19 -1 -8 3 -5 6 6 6 11 1 17 -2
13 -5z m3716 -1 c-7 -2 -19 -2 -25 0 -7 3 -2 5 12 5 14 0 19 -2 13 -5z m200 0
c-7 -2 -19 -2 -25 0 -7 3 -2 5 12 5 14 0 19 -2 13 -5z m240 0 c-13 -2 -35 -2
-50 0 -16 2 -5 4 22 4 28 0 40 -2 28 -4z m166 -33 c47 0 764 -40 806 -45 22
-2 83 -7 135 -10 83 -5 286 -21 375 -29 16 -2 30 -7 32 -12 3 -11 33 -348 33
-374 0 -12 -6 -17 -17 -14 -10 2 -286 13 -613 24 -327 11 -631 24 -675 28
l-80 7 -17 180 c-15 163 -22 324 -11 268 3 -17 11 -23 32 -23z m-5362 24 c-3
-3 -12 -4 -19 -1 -8 3 -5 6 6 6 11 1 17 -2 13 -5z m190 -16 c-3 -8 -6 -5 -6 6
-1 11 2 17 5 13 3 -3 4 -12 1 -19z m-434 5 c-7 -2 -19 -2 -25 0 -7 3 -2 5 12
5 14 0 19 -2 13 -5z m375 0 c-10 -2 -26 -2 -35 0 -10 3 -2 5 17 5 19 0 27 -2
18 -5z m225 0 c-7 -2 -19 -2 -25 0 -7 3 -2 5 12 5 14 0 19 -2 13 -5z m5084 1
c-3 -3 -12 -4 -19 -1 -8 3 -5 6 6 6 11 1 17 -2 13 -5z m80 0 c-3 -3 -12 -4
-19 -1 -8 3 -5 6 6 6 11 1 17 -2 13 -5z m196 -1 c-7 -2 -19 -2 -25 0 -7 3 -2
5 12 5 14 0 19 -2 13 -5z m-6483 -7 c0 -2 -9 -6 -20 -9 -11 -3 -18 -1 -14 4 5
9 34 13 34 5z m739 0 c-2 -2 -20 -6 -39 -10 -25 -4 -31 -3 -20 4 14 9 69 15
59 6z m4073 -43 c-7 -65 -12 -67 -12 -5 0 29 4 52 9 52 5 0 6 -21 3 -47z
m2101 40 c-13 -2 -33 -2 -45 0 -13 2 -3 4 22 4 25 0 35 -2 23 -4z m-4735 -119
l-3 -99 -5 107 c-3 59 -1 104 3 99 4 -4 6 -52 5 -107z m4989 110 c-3 -3 -12
-4 -19 -1 -8 3 -5 6 6 6 11 1 17 -2 13 -5z m-6207 -41 c0 -21 -7 -110 -15
-198 -8 -88 -15 -165 -15 -171 0 -12 16 -11 -843 -45 -296 -12 -540 -20 -542
-18 -1 2 4 89 13 194 l17 190 40 2 c22 1 130 9 240 18 110 8 355 24 545 35
190 11 368 22 395 23 28 2 76 4 108 5 l57 2 0 -37z m5727 31 c-3 -3 -12 -4
-19 -1 -8 3 -5 6 6 6 11 1 17 -2 13 -5z m80 0 c-3 -3 -12 -4 -19 -1 -8 3 -5 6
6 6 11 1 17 -2 13 -5z m96 -1 c-7 -2 -19 -2 -25 0 -7 3 -2 5 12 5 14 0 19 -2
13 -5z m87 -3 c-25 -8 -25 -8 4 -9 16 -1 27 -4 23 -7 -3 -4 -23 -3 -44 1 -32
6 -35 9 -18 15 11 5 29 8 40 8 16 0 15 -2 -5 -8z m476 -5 c-8 -8 -25 -14 -38
-14 -20 1 -21 2 -3 6 11 3 24 9 30 14 16 16 27 10 11 -6z m-7820 -23 c-17 -16
-18 -16 -5 5 7 12 15 20 18 17 3 -2 -3 -12 -13 -22z m597 21 c-7 -2 -19 -2
-25 0 -7 3 -2 5 12 5 14 0 19 -2 13 -5z m194 1 c-3 -3 -12 -4 -19 -1 -8 3 -5
6 6 6 11 1 17 -2 13 -5z m6656 -1 c-7 -2 -21 -2 -30 0 -10 3 -4 5 12 5 17 0
24 -2 18 -5z m-7296 -9 c-3 -3 -12 -4 -19 -1 -8 3 -5 6 6 6 11 1 17 -2 13 -5z
m363 2 c0 -2 -18 -6 -39 -8 -22 -2 -37 0 -35 4 5 8 74 11 74 4z m7083 -3 c-13
-2 -33 -2 -45 0 -13 2 -3 4 22 4 25 0 35 -2 23 -4z m474 1 c-3 -3 -12 -4 -19
-1 -8 3 -5 6 6 6 11 1 17 -2 13 -5z m-8459 -11 c-10 -2 -26 -2 -35 0 -10 3 -2
5 17 5 19 0 27 -2 18 -5z m800 0 c-10 -2 -26 -2 -35 0 -10 3 -2 5 17 5 19 0
27 -2 18 -5z m-985 -10 c-7 -2 -21 -2 -30 0 -10 3 -4 5 12 5 17 0 24 -2 18 -5z
m604 -15 c-3 -8 -6 -5 -6 6 -1 11 2 17 5 13 3 -3 4 -12 1 -19z m236 15 c-18
-2 -48 -2 -65 0 -18 2 -4 4 32 4 36 0 50 -2 33 -4z m7374 1 c-3 -3 -12 -4 -19
-1 -8 3 -5 6 6 6 11 1 17 -2 13 -5z m76 -1 c-7 -2 -19 -2 -25 0 -7 3 -2 5 12
5 14 0 19 -2 13 -5z m80 0 c-7 -2 -21 -2 -30 0 -10 3 -4 5 12 5 17 0 24 -2 18
-5z m595 0 c-10 -2 -28 -2 -40 0 -13 2 -5 4 17 4 22 1 32 -1 23 -4z m-82 -21
c-10 -2 -22 0 -28 6 -6 6 0 7 19 4 21 -5 23 -7 9 -10z m-8829 2 c-3 -3 -12 -4
-19 -1 -8 3 -5 6 6 6 11 1 17 -2 13 -5z m8968 -4 c3 -6 -1 -7 -9 -4 -18 7 -21
14 -7 14 6 0 13 -4 16 -10z m-9040 -20 c-3 -5 -16 -10 -28 -9 -20 1 -20 2 3 9
14 4 26 8 28 9 2 1 0 -3 -3 -9z m250 0 c25 -11 -1 -11 -35 0 -20 6 -21 8 -5 8
11 0 29 -3 40 -8z m5561 -152 c0 -140 -1 -152 -8 -83 -6 63 -2 245 5 245 1 0
2 -73 3 -162z m3057 145 c-7 -2 -21 -2 -30 0 -10 3 -4 5 12 5 17 0 24 -2 18
-5z m120 -10 c-7 -2 -21 -2 -30 0 -10 3 -4 5 12 5 17 0 24 -2 18 -5z m-8975
-10 c-16 -2 -40 -2 -55 0 -16 2 -3 4 27 4 30 0 43 -2 28 -4z m9029 1 c-3 -3
-12 -4 -19 -1 -8 3 -5 6 6 6 11 1 17 -2 13 -5z m-5900 -116 c-3 -8 -6 -5 -6 6
-1 11 2 17 5 13 3 -3 4 -12 1 -19z m12 -115 c1 -12 -2 -24 -6 -26 -5 -3 -9 16
-9 42 -1 32 1 40 7 26 4 -11 8 -30 8 -42z m2678 -75 c-3 -8 -6 -5 -6 6 -1 11
2 17 5 13 3 -3 4 -12 1 -19z m-2717 -55 c0 -16 -5 -122 -10 -238 -22 -477 -30
-645 -32 -729 l-3 -89 -255 7 c-453 12 -925 28 -929 31 -3 4 73 887 84 971 l6
41 252 8 c139 4 369 11 512 15 143 4 286 7 318 8 56 2 57 2 57 -25z m3453 5
c325 -8 480 -15 482 -22 2 -6 22 -225 45 -486 22 -261 42 -484 43 -495 2 -19
-6 -20 -173 -27 -96 -3 -373 -11 -615 -18 -242 -6 -451 -12 -465 -14 -14 -2
-19 -1 -12 1 13 5 18 163 5 163 -5 0 -8 60 -9 133 0 131 -21 662 -29 745 l-4
44 127 -6 c70 -3 342 -11 605 -18z m-745 -138 c-1 -28 -2 -25 -8 15 -5 28 -8
68 -8 90 1 35 2 33 8 -15 5 -30 8 -71 8 -90z m-3937 -116 c-11 -126 -30 -332
-40 -459 -11 -126 -23 -249 -26 -273 l-6 -43 -52 5 c-29 3 -146 8 -262 11
-331 10 -1046 42 -1051 48 -7 7 68 880 76 890 7 8 389 27 950 47 173 6 340 12
370 13 30 1 56 -1 58 -4 2 -4 -6 -110 -17 -235z m5613 226 c856 -35 1001 -41
1002 -43 6 -6 77 -888 72 -893 -11 -10 -1353 -63 -1362 -53 -3 3 -23 209 -46
459 -22 250 -42 474 -46 498 l-5 42 71 0 c40 0 181 -4 314 -10z m-4357 -112
c-2 -13 -4 -5 -4 17 -1 22 1 32 4 23 2 -10 2 -28 0 -40z m2696 -278 c2 -41 1
-66 -3 -55 -4 11 -9 61 -12 110 -3 52 -2 75 2 55 4 -19 10 -69 13 -110z
m-2716 58 c-3 -7 -5 -2 -5 12 0 14 2 19 5 13 2 -7 2 -19 0 -25z m0 -80 c-3 -7
-5 -2 -5 12 0 14 2 19 5 13 2 -7 2 -19 0 -25z m2720 -150 c-2 -13 -4 -3 -4 22
0 25 2 35 4 23 2 -13 2 -33 0 -45z m-2729 -128 c-1 -66 -3 -119 -5 -116 -13
13 -11 236 3 236 1 0 3 -54 2 -120z m2739 78 c-3 -8 -6 -5 -6 6 -1 11 2 17 5
13 3 -3 4 -12 1 -19z m0 -155 c-3 -10 -5 -4 -5 12 0 17 2 24 5 18 2 -7 2 -21
0 -30z m-2750 -85 c-3 -8 -6 -5 -6 6 -1 11 2 17 5 13 3 -3 4 -12 1 -19z m1
-113 c-1 -52 -5 -91 -9 -87 -6 8 1 182 8 182 2 0 3 -43 1 -95z m2759 3 c-3 -8
-6 -5 -6 6 -1 11 2 17 5 13 3 -3 4 -12 1 -19z m-4612 -79 c303 -11 553 -24
556 -28 6 -6 -66 -820 -74 -827 -7 -8 -426 64 -737 126 -219 44 -602 128 -607
134 -2 2 8 135 22 295 14 161 25 302 25 313 0 21 3 21 133 15 72 -4 380 -16
682 -28z m7335 24 c1 -5 14 -154 29 -333 16 -179 27 -326 26 -328 -6 -8 -613
-132 -648 -132 -15 0 -15 -3 -5 -20 7 -11 20 -20 28 -20 17 0 40 -19 40 -32 0
-5 -8 -8 -17 -6 -14 2 -19 -5 -21 -28 -3 -28 2 -35 46 -63 54 -34 92 -39 116
-15 20 20 20 33 0 41 -10 4 -20 0 -26 -10 -10 -18 -43 -23 -52 -8 -19 30 44
91 93 91 27 0 68 -39 75 -71 8 -36 -30 -91 -72 -104 -22 -6 -32 -15 -32 -30
-1 -55 -53 -62 -58 -8 -5 55 -62 58 -62 4 0 -33 20 -54 44 -45 24 9 19 -12 -7
-33 -13 -10 -26 -26 -30 -35 -8 -22 -30 -23 -47 -3 -7 8 -20 15 -30 15 -18 0
-49 29 -34 31 5 1 16 2 24 3 20 1 25 46 8 69 -21 28 -50 12 -48 -27 1 -17 2
-37 1 -44 -2 -21 -45 -9 -56 15 -7 16 -15 21 -30 17 -26 -7 -68 9 -95 36 -31
31 -27 93 6 119 51 40 134 14 134 -42 0 -19 -7 -20 -59 -6 -27 7 -24 -30 3
-42 33 -15 66 5 102 63 21 34 25 47 17 67 -6 19 -15 25 -31 24 -28 -3 -29 22
-2 37 11 6 20 17 20 25 0 8 5 15 12 15 6 0 9 2 6 5 -2 3 -56 -4 -118 -15 -136
-25 -501 -80 -528 -80 -17 0 -21 30 -56 426 -21 234 -36 427 -34 429 2 3 195
12 429 20 233 9 496 20 584 24 222 11 355 12 355 4z m-5495 -71 c-8 -8 -25 10
-25 26 0 13 2 13 14 -4 8 -10 13 -21 11 -22z m-660 8 c281 -6 538 -13 573 -16
l64 -6 -6 -106 c-19 -334 -37 -779 -34 -809 l4 -35 -95 6 c-307 22 -1110 122
-1129 140 -3 4 11 192 32 419 20 226 36 415 36 420 0 4 10 5 23 3 12 -3 252
-10 532 -16z m4719 -22 c4 -24 22 -218 41 -433 23 -267 31 -391 24 -396 -6 -3
-36 -9 -67 -13 -32 -3 -131 -14 -222 -25 -273 -32 -479 -52 -912 -87 l-76 -6
-6 64 c-3 34 -12 236 -21 448 -9 212 -17 401 -18 420 l-2 35 180 3 c141 3 771
21 1032 31 l42 1 5 -42z m-1264 18 c0 -3 -4 -8 -10 -11 -5 -3 -10 -1 -10 4 0
6 5 11 10 11 6 0 10 -2 10 -4z m-2790 -20 c0 -3 -4 -8 -10 -11 -5 -3 -10 -1
-10 4 0 6 5 11 10 11 6 0 10 -2 10 -4z m-13 -68 c-3 -7 -5 -2 -5 12 0 14 2 19
5 13 2 -7 2 -19 0 -25z m2800 10 c-3 -8 -6 -5 -6 6 -1 11 2 17 5 13 3 -3 4
-12 1 -19z m-10 -140 c-2 -24 -4 -7 -4 37 0 44 2 63 4 43 2 -21 2 -57 0 -80z
m-2790 -110 c-2 -24 -4 -5 -4 42 0 47 2 66 4 43 2 -24 2 -62 0 -85z m2808 -88
c-9 -41 -17 -33 -9 9 4 17 9 30 11 27 3 -2 2 -19 -2 -36z m2 -152 c-2 -24 -4
-7 -4 37 0 44 2 63 4 43 2 -21 2 -57 0 -80z m-2818 52 c0 -9 -4 -8 -9 5 -5 11
-9 27 -9 35 0 9 4 8 9 -5 5 -11 9 -27 9 -35z m-14 -228 c-4 -57 -9 -101 -11
-99 -3 2 -1 69 3 148 5 79 10 124 11 99 2 -25 1 -91 -3 -148z m-2535 118 c0
-5 -1 -12 -2 -15 -2 -2 7 -12 20 -20 24 -17 31 -48 8 -39 -19 7 -46 -23 -46
-51 0 -47 57 -41 67 7 3 16 13 32 21 35 18 8 44 -25 37 -47 -4 -11 4 -19 27
-25 17 -6 40 -22 51 -37 66 -90 -45 -187 -124 -109 -32 33 -36 52 -15 70 12
10 19 8 35 -8 34 -34 62 -20 41 19 -16 29 -71 26 -123 -7 -23 -15 -43 -27 -44
-28 -1 0 -5 -13 -8 -28 -6 -23 -4 -29 14 -34 30 -8 26 -23 -9 -36 -16 -6 -30
-15 -30 -19 0 -4 -10 -8 -22 -8 -15 1 -31 13 -45 36 -27 41 -32 74 -9 55 12
-10 18 -7 32 14 16 25 16 27 -10 74 -23 43 -25 56 -20 110 4 38 11 60 18 58 6
-2 10 -13 8 -23 -8 -46 -6 -57 10 -67 21 -14 34 -3 44 36 5 23 3 29 -15 34
-31 8 -26 33 9 40 17 3 30 9 30 14 0 5 11 9 25 9 14 0 25 -4 25 -10z m8033
-14 c3 -7 19 -16 36 -19 35 -7 43 -37 11 -37 -15 0 -20 -7 -20 -29 0 -16 6
-34 14 -40 17 -14 44 -5 49 17 2 10 5 -3 8 -27 4 -35 0 -52 -18 -78 -33 -49
-21 -90 25 -84 18 3 15 -16 -6 -36 -11 -10 -22 -26 -25 -35 -8 -22 -43 -24
-51 -3 -3 8 -14 15 -24 15 -18 0 -52 28 -38 31 3 1 10 2 16 3 21 3 31 23 21
47 -11 29 -81 79 -111 79 -33 0 -60 -19 -60 -40 0 -24 22 -26 40 -5 18 22 50
19 50 -4 0 -33 -11 -51 -41 -66 -59 -31 -114 -9 -125 50 -10 55 38 115 92 115
10 0 13 7 9 23 -7 27 16 52 40 43 9 -3 15 0 15 9 0 8 9 20 20 27 11 7 20 18
20 23 0 29 44 46 53 21z m97 -62 c0 -8 -4 -12 -10 -9 -5 3 -10 10 -10 16 0 5
5 9 10 9 6 0 10 -7 10 -16z m-8350 -23 c0 -21 -6 -32 -20 -36 -23 -7 -27 -33
-5 -41 9 -4 15 -19 15 -35 0 -26 -4 -29 -30 -29 -41 0 -80 39 -80 80 0 43 47
90 89 90 28 0 31 -3 31 -29z m8500 -8 c51 -30 63 -83 29 -127 -28 -35 -93 -38
-103 -3 -10 37 -7 44 17 43 29 -1 29 26 0 39 -20 8 -37 48 -25 60 11 11 55 4
82 -12z m-7726 -9 c9 -3 16 -12 16 -19 0 -6 9 -20 20 -30 28 -25 26 -43 -5
-38 -19 4 -25 0 -31 -21 -6 -25 12 -61 59 -113 26 -29 72 -30 87 -3 14 26 -8
37 -39 20 -41 -21 -58 21 -21 53 24 20 87 22 112 3 25 -19 36 -57 26 -92 -9
-36 -56 -64 -107 -64 -17 0 -31 -4 -31 -9 0 -5 -7 -17 -16 -25 -11 -12 -20
-13 -34 -6 -14 8 -17 18 -13 48 4 30 1 40 -11 45 -29 11 -46 -3 -46 -40 0 -27
5 -36 20 -40 16 -4 18 -8 9 -19 -6 -8 -18 -14 -26 -14 -8 0 -21 -7 -29 -15
-22 -22 -43 -18 -53 9 -5 13 -17 26 -25 29 -9 4 -16 15 -16 26 0 14 -5 18 -18
14 -24 -6 -46 21 -39 47 4 15 0 20 -14 20 -10 0 -34 14 -54 31 -44 39 -48 87
-10 124 51 52 145 15 145 -56 0 -23 -32 -26 -50 -4 -19 23 -42 19 -38 -6 7
-49 78 -50 135 -1 42 35 47 71 13 88 l-25 13 37 15 c20 9 39 20 43 26 7 12 8
12 29 4z m6342 -109 c4 -8 14 -15 24 -15 10 0 23 -7 30 -15 10 -13 9 -15 -8
-15 -12 0 -24 -5 -27 -10 -10 -16 4 -68 20 -74 23 -8 47 23 40 51 -12 48 37
66 54 20 5 -14 18 -20 50 -21 119 -6 131 -171 12 -171 -44 0 -81 26 -81 57 0
20 38 26 56 8 8 -8 15 -6 25 6 11 14 11 18 -6 30 -38 28 -71 13 -115 -51 -36
-52 -37 -88 -2 -93 27 -4 29 -28 2 -42 -11 -6 -20 -17 -20 -26 0 -25 -28 -27
-56 -5 -15 12 -32 21 -39 21 -24 0 -25 29 -2 32 50 7 23 79 -44 113 -22 12
-27 23 -33 71 -3 31 -4 59 -1 63 9 9 24 -20 18 -36 -7 -18 15 -43 39 -43 16 0
19 6 16 38 -3 31 -7 37 -25 36 -13 0 -23 3 -23 7 0 18 13 39 25 39 7 0 15 9
18 20 6 24 45 27 53 5z m-5757 -19 c5 -13 17 -26 25 -29 24 -10 20 -37 -6 -34
-16 1 -23 -5 -29 -27 -8 -29 3 -56 22 -56 17 0 39 33 39 57 0 15 3 24 6 20 4
-3 3 -31 -1 -62 -6 -51 -10 -57 -50 -85 -23 -16 -45 -37 -49 -45 -8 -23 11
-55 29 -49 8 4 15 2 15 -3 0 -15 -23 -33 -41 -33 -9 0 -22 -7 -29 -15 -17 -20
-39 -19 -47 3 -4 9 -15 23 -25 30 -10 7 -18 22 -18 34 0 16 3 18 14 9 10 -8
16 -8 23 1 23 30 22 49 -8 93 -44 65 -81 81 -114 49 -12 -13 -13 -19 -4 -30 9
-10 15 -12 23 -4 5 5 20 10 33 10 32 0 30 -33 -3 -59 -57 -45 -136 -9 -136 62
0 21 6 44 13 53 22 27 70 46 99 40 24 -4 29 -1 34 19 5 19 13 25 32 25 25 0
26 -3 21 -34 -10 -64 44 -92 56 -29 6 31 -7 53 -30 53 -13 0 -13 3 -3 15 7 8
20 15 30 15 10 0 20 7 24 15 9 24 45 18 55 -9z m4248 -48 c-3 -7 -5 -2 -5 12
0 14 2 19 5 13 2 -7 2 -19 0 -25z m-2860 -15 c-3 -10 -5 -4 -5 12 0 17 2 24 5
18 2 -7 2 -21 0 -30z m3790 6 c6 -6 21 -16 34 -23 27 -13 41 -43 16 -33 -20 7
-36 -18 -30 -44 7 -26 96 -89 125 -89 31 0 60 30 49 49 -9 14 -22 11 -53 -11
-28 -20 -44 3 -29 40 23 54 95 69 136 27 37 -36 34 -88 -6 -126 -17 -16 -42
-29 -55 -29 -19 0 -24 -5 -24 -24 0 -33 -25 -53 -45 -36 -8 7 -15 23 -15 35 0
12 -6 28 -14 34 -21 18 -46 2 -46 -29 0 -30 23 -56 40 -45 18 11 11 -23 -8
-37 -10 -7 -21 -21 -25 -30 -8 -22 -45 -24 -53 -3 -4 8 -12 15 -18 15 -7 0
-21 6 -32 14 -18 14 -18 15 9 25 28 11 31 20 21 59 -5 16 -13 22 -28 20 -17
-2 -21 -10 -22 -41 0 -20 -5 -42 -11 -48 -15 -15 -42 0 -49 27 -5 19 -11 22
-32 18 -33 -6 -88 26 -103 60 -24 53 19 116 78 116 53 0 109 -68 69 -83 -7 -3
-23 1 -35 9 -23 16 -41 11 -41 -11 0 -20 37 -38 64 -31 22 5 96 89 96 108 0
25 -22 49 -41 43 -29 -9 -24 21 6 41 14 9 25 23 25 30 0 17 31 19 47 3z
m-4610 -29 c3 -10 14 -22 24 -25 10 -4 19 -15 19 -25 0 -14 -5 -18 -16 -13
-18 7 -34 -12 -34 -43 0 -32 81 -114 112 -114 33 0 56 26 39 43 -9 9 -16 9
-31 -1 -22 -13 -50 -6 -50 13 0 31 36 57 79 59 35 1 47 -4 67 -27 32 -37 30
-70 -5 -109 -23 -26 -36 -32 -69 -32 -33 -1 -42 -5 -46 -22 -7 -26 -35 -39
-50 -24 -6 6 -11 28 -11 48 0 33 -3 37 -25 37 -17 0 -26 -7 -30 -25 -9 -34 -2
-50 21 -50 10 0 19 -4 19 -8 0 -14 -23 -32 -41 -32 -9 0 -19 -7 -23 -15 -9
-23 -26 -18 -62 20 -38 38 -44 60 -15 50 22 -7 33 6 37 45 2 18 -2 30 -11 34
-21 8 -45 -3 -47 -23 0 -9 -2 -21 -2 -28 -4 -43 -56 -36 -56 7 0 23 -5 29 -30
34 -74 14 -106 101 -55 151 40 41 113 27 135 -26 18 -43 -11 -69 -40 -34 -17
21 -40 19 -40 -3 0 -25 19 -42 48 -42 32 0 111 58 118 87 7 28 -2 57 -16 48
-5 -3 -15 -3 -20 0 -15 9 7 35 30 35 10 0 20 7 24 15 8 22 47 19 53 -5z m790
-82 c-2 -13 -4 -3 -4 22 0 25 2 35 4 23 2 -13 2 -33 0 -45z m2890 30 c-3 -7
-5 -2 -5 12 0 14 2 19 5 13 2 -7 2 -19 0 -25z m20 0 c-3 -8 -6 -5 -6 6 -1 11
2 17 5 13 3 -3 4 -12 1 -19z m333 11 c0 -5 14 -15 30 -20 17 -6 30 -17 30 -25
0 -8 -3 -13 -7 -13 -28 5 -34 -3 -31 -38 3 -33 6 -38 28 -38 22 0 25 5 28 43
3 46 22 63 47 42 8 -7 15 -20 15 -29 0 -13 9 -17 35 -17 98 0 141 -129 54
-164 -49 -21 -119 10 -119 51 0 26 18 33 44 16 14 -10 28 -12 37 -6 21 13 -2
43 -36 47 -40 5 -117 -79 -113 -122 2 -25 8 -31 26 -30 12 0 22 -4 22 -9 0
-17 -70 -79 -83 -73 -66 33 -95 66 -59 66 23 0 35 24 27 51 -9 27 -93 89 -121
89 -23 0 -54 -24 -54 -41 0 -18 31 -21 49 -5 22 20 37 20 45 0 13 -34 -38 -84
-85 -84 -14 0 -38 9 -53 21 -55 43 -22 140 53 155 23 5 31 12 33 33 2 20 8 26
28 26 21 0 26 -6 30 -35 4 -27 10 -36 28 -38 26 -4 37 17 28 52 -4 17 -14 26
-33 28 l-26 3 34 37 c32 36 69 50 69 27z m971 -1 c1 -7 3 -35 5 -63 2 -27 5
-61 6 -75 4 -36 -34 -39 -67 -6 -34 34 -34 84 1 125 26 32 53 41 55 19z
m-5396 -29 c27 -24 35 -39 35 -66 0 -19 -4 -43 -10 -53 -10 -20 -57 -40 -77
-33 -15 5 -17 59 -3 68 6 4 7 28 4 61 -8 64 0 67 51 23z m980 -13 c41 -38 44
-53 13 -52 -20 1 -23 -5 -26 -37 -3 -37 -2 -38 25 -35 24 2 29 9 33 38 4 27
10 36 28 38 18 3 23 -2 28 -26 5 -22 13 -31 33 -35 57 -12 65 -27 55 -103 -9
-66 -10 -69 -38 -72 -61 -7 -124 49 -95 84 10 12 15 12 36 -2 32 -21 58 -12
43 15 -22 43 -59 36 -132 -22 -43 -34 -52 -75 -18 -84 28 -7 25 -31 -4 -39
-14 -3 -27 -12 -30 -20 -8 -21 -47 -17 -53 6 -3 11 -11 20 -19 20 -7 0 -18 9
-24 20 -9 17 -8 20 14 20 24 0 36 16 36 49 0 22 -88 111 -111 111 -18 0 -49
-25 -49 -40 0 -15 21 -23 33 -11 6 6 21 11 34 11 30 0 30 -24 -2 -55 -51 -52
-145 -15 -145 57 0 46 48 88 99 88 29 0 41 4 41 14 0 21 28 46 45 40 8 -3 15
-23 17 -47 2 -34 7 -43 24 -45 17 -2 23 3 27 24 7 37 -1 54 -25 54 -25 0 -19
21 11 36 13 7 28 17 34 23 17 17 25 14 62 -23z m3112 -8 c-3 -8 -6 -5 -6 6 -1
11 2 17 5 13 3 -3 4 -12 1 -19z m-20 -55 c-3 -10 -5 -2 -5 17 0 19 2 27 5 18
2 -10 2 -26 0 -35z m1413 15 c0 -16 -3 -19 -11 -11 -6 6 -8 16 -5 22 11 17 16
13 16 -11z m-1413 -60 c-3 -8 -6 -5 -6 6 -1 11 2 17 5 13 3 -3 4 -12 1 -19z
m20 -15 c-3 -10 -5 -4 -5 12 0 17 2 24 5 18 2 -7 2 -21 0 -30z m-2894 -4 c-6
-6 -15 -4 -23 6 -7 9 -8 15 -2 15 6 0 13 -6 15 -12 3 -7 6 -4 7 7 1 13 4 15 7
7 3 -8 1 -18 -4 -23z m2908 -75 c-5 -35 -9 -46 -10 -28 -1 34 9 97 15 91 2 -2
0 -30 -5 -63z m-2901 4 c0 -34 -16 -25 -17 9 -1 25 2 32 8 22 5 -8 9 -22 9
-31z m2877 10 c-3 -7 -5 -2 -5 12 0 14 2 19 5 13 2 -7 2 -19 0 -25z m0 -60
c-3 -7 -5 -2 -5 12 0 14 2 19 5 13 2 -7 2 -19 0 -25z m-2906 -71 c-8 -8 -11
-7 -11 4 0 20 13 34 18 19 3 -7 -1 -17 -7 -23z m-4 -79 c-2 -13 -4 -3 -4 22 0
25 2 35 4 23 2 -13 2 -33 0 -45z m16 -35 c-7 -2 -19 -2 -25 0 -7 3 -2 5 12 5
14 0 19 -2 13 -5z m2920 0 c-7 -2 -19 -2 -25 0 -7 3 -2 5 12 5 14 0 19 -2 13
-5z m0 -20 c-7 -2 -19 -2 -25 0 -7 3 -2 5 12 5 14 0 19 -2 13 -5z"/>
<path d="M2577 5326 c-15 -14 -35 -27 -46 -31 -10 -3 -24 -12 -31 -20 -9 -11
-7 -12 9 -8 26 7 27 -12 3 -52 -25 -41 -137 -115 -174 -115 -38 0 -47 25 -20
53 21 20 22 20 41 2 17 -14 23 -15 36 -5 24 20 19 59 -10 72 -20 9 -33 8 -66
-7 -103 -47 -134 -165 -43 -165 30 0 35 -3 29 -17 -12 -32 -10 -38 10 -38 13
0 27 13 40 37 21 40 62 65 77 50 19 -19 -33 -92 -64 -92 -22 0 -24 -25 -3 -34
8 -3 15 -12 15 -21 0 -20 24 -19 40 1 8 8 29 22 48 30 34 14 34 15 16 29 -19
14 -19 14 1 52 15 28 27 39 48 41 32 4 35 -13 12 -58 -15 -29 -15 -30 8 -30
15 0 29 10 40 30 11 19 26 30 40 30 32 1 98 33 124 61 45 49 52 112 14 122
-41 10 -141 -46 -141 -80 0 -17 4 -16 42 3 40 21 59 5 29 -25 -23 -23 -63 -36
-86 -28 -8 3 -23 25 -34 48 -20 41 -20 43 -3 73 12 20 27 32 45 34 29 4 36 19
12 28 -8 4 -15 14 -15 24 0 30 -15 32 -43 6z"/>
<path d="M8190 5337 c0 -7 -9 -18 -20 -25 -11 -7 -20 -17 -20 -23 0 -5 4 -8 9
-5 27 17 69 -43 57 -81 -11 -33 -64 -83 -89 -83 -24 0 -67 37 -67 58 0 16 31
14 54 -3 26 -20 36 -19 36 3 0 25 -40 60 -80 72 -49 14 -80 -8 -80 -56 0 -50
60 -111 118 -120 30 -5 42 -11 42 -23 0 -23 20 -41 43 -41 14 0 17 4 12 18 -5
9 -8 28 -9 42 -1 20 4 26 26 28 22 3 28 -2 38 -33 15 -47 7 -68 -22 -60 l-23
6 24 -20 c13 -12 28 -21 35 -21 6 0 17 -9 24 -20 7 -11 18 -20 26 -20 7 0 16
9 19 20 3 11 12 20 21 20 9 0 16 7 16 15 0 8 -9 15 -20 15 -32 0 -63 83 -34
94 26 10 53 -12 64 -55 9 -33 15 -40 33 -37 17 2 21 9 19 30 -2 24 1 27 35 30
46 4 70 38 59 83 -10 38 -68 95 -98 95 -34 0 -68 -27 -68 -54 0 -31 28 -41 51
-20 15 14 21 14 34 4 42 -35 -7 -74 -63 -51 -43 19 -119 93 -126 124 -5 22 -3
29 16 36 22 8 22 8 -8 27 -16 10 -33 24 -37 31 -10 17 -47 17 -47 0z"/>
<path d="M5392 5404 c-5 -8 -22 -24 -38 -35 -27 -18 -28 -19 -6 -19 28 0 36
-19 28 -65 -6 -28 -11 -35 -31 -35 -27 0 -40 28 -31 65 3 13 1 27 -5 31 -14 8
-39 -17 -43 -42 -2 -14 -13 -20 -40 -24 -82 -11 -129 -107 -79 -163 32 -35
133 6 133 55 0 23 -18 23 -42 1 -16 -15 -20 -15 -33 -2 -24 23 6 59 50 59 28
0 40 -8 69 -44 20 -23 36 -51 36 -60 0 -29 -20 -56 -40 -56 -24 0 -16 -27 10
-35 10 -3 20 -15 23 -26 5 -17 9 -19 26 -9 12 6 21 15 21 21 0 5 11 14 25 19
30 11 32 26 5 33 -15 4 -20 14 -20 36 0 50 103 136 149 124 26 -7 40 -51 20
-64 -8 -5 -20 -2 -30 7 -30 27 -56 11 -44 -26 7 -21 53 -50 80 -50 9 0 30 13
46 29 31 31 38 75 19 112 -13 23 -64 51 -88 47 -12 -2 -16 3 -14 18 3 23 -21
49 -38 39 -5 -3 -10 -19 -10 -34 0 -36 -22 -64 -46 -59 -30 5 -27 79 4 93 27
12 28 25 3 32 -11 3 -21 13 -24 24 -6 23 -33 25 -45 3z"/>
<path d="M5953 5404 c-3 -8 -16 -20 -29 -25 -29 -11 -31 -25 -4 -32 15 -4 20
-14 20 -40 0 -27 -9 -43 -42 -75 -23 -23 -50 -45 -61 -48 -26 -8 -67 15 -67
38 0 23 27 35 43 19 14 -14 47 -14 47 0 0 15 -21 53 -34 61 -22 15 -76 8 -96
-12 -58 -58 -14 -160 69 -160 14 0 21 -8 23 -27 2 -20 9 -28 23 -28 16 0 21 8
23 37 2 26 10 41 24 49 28 15 40 0 36 -47 -2 -31 -8 -39 -27 -44 -23 -5 -24
-7 -7 -20 9 -8 27 -26 40 -39 23 -22 24 -22 37 -4 8 10 28 27 44 38 l30 19
-25 6 c-21 5 -25 12 -28 48 -3 41 -2 42 27 42 33 0 47 -24 36 -60 -4 -13 -1
-22 9 -26 21 -8 46 13 46 37 0 14 7 19 29 19 18 0 40 11 60 29 59 55 30 151
-45 151 -36 0 -74 -36 -74 -68 0 -26 16 -28 41 -6 20 18 39 11 39 -15 0 -24
-20 -41 -50 -41 -30 0 -120 85 -120 114 0 28 20 58 36 52 8 -3 14 1 14 9 0 7
-9 16 -19 20 -11 3 -23 15 -26 26 -8 23 -33 25 -42 3z"/>
<path d="M4833 5397 c-4 -7 -21 -21 -38 -32 -27 -17 -28 -20 -10 -23 28 -6 34
-20 25 -53 -9 -29 -63 -83 -108 -108 -32 -17 -72 -1 -72 29 0 24 26 38 43 21
20 -20 47 -13 47 12 0 35 -21 57 -59 62 -47 6 -101 -46 -101 -98 0 -46 28 -79
68 -81 28 -1 32 -5 32 -28 0 -56 43 -43 54 16 10 52 66 67 66 18 0 -32 -25
-72 -46 -72 -20 0 -18 -8 15 -41 33 -32 49 -36 58 -14 3 9 18 22 34 31 32 16
38 33 12 30 -13 -1 -19 7 -21 26 -5 39 14 68 44 68 24 0 25 -3 23 -40 -4 -46
2 -54 30 -45 13 4 21 15 21 29 0 20 6 24 43 29 67 9 107 66 97 137 -3 21 -31
39 -63 40 -31 0 -87 -47 -87 -74 0 -20 24 -21 40 -1 29 35 60 3 34 -34 -10
-14 -26 -21 -48 -21 -27 0 -39 7 -62 38 -15 20 -32 40 -38 44 -18 12 7 73 32
76 27 4 28 18 2 34 -11 7 -20 18 -20 25 0 17 -37 17 -47 0z"/>
<path d="M6488 5380 c-32 -33 -34 -40 -13 -40 18 0 35 -39 30 -66 -2 -11 -4
-22 -4 -26 -1 -5 -7 -8 -13 -8 -26 0 -41 19 -47 56 -8 51 -38 60 -47 15 -5
-22 -12 -31 -26 -31 -33 0 -75 -28 -88 -59 -36 -88 60 -162 125 -96 40 39 25
86 -15 50 -23 -21 -50 -13 -50 14 0 22 27 41 58 41 10 0 39 -21 65 -47 38 -37
47 -54 47 -81 0 -25 -5 -35 -20 -39 -27 -7 -25 -21 4 -32 13 -5 26 -17 29 -25
10 -24 29 -19 67 19 32 33 32 35 12 35 -31 0 -48 45 -28 74 36 53 76 86 104
86 34 0 65 -30 56 -54 -8 -20 -33 -21 -40 -1 -9 21 -44 19 -44 -2 1 -57 96
-96 133 -55 50 55 16 139 -63 158 -34 8 -46 16 -48 32 -4 25 -27 46 -42 37 -6
-4 -8 -20 -5 -38 7 -40 -6 -60 -36 -55 -20 3 -24 9 -27 46 -3 37 0 44 17 49
27 7 27 20 1 28 -11 3 -25 15 -30 26 -14 26 -30 23 -62 -11z"/>
<path d="M4273 5380 c-10 -11 -23 -20 -29 -20 -6 0 -17 -6 -23 -14 -9 -11 -7
-15 9 -19 24 -6 25 -27 4 -68 -23 -45 -49 -35 -49 18 0 23 -3 45 -7 49 -11 11
-48 -26 -48 -48 0 -12 -7 -18 -24 -18 -95 0 -174 -113 -116 -165 26 -23 75
-14 112 22 46 44 33 70 -17 37 -24 -15 -45 -12 -45 7 0 19 41 49 69 49 30 0
73 -40 86 -80 9 -28 -16 -74 -43 -78 -27 -4 -29 -22 -2 -29 11 -3 20 -14 20
-24 0 -26 36 -25 50 1 6 11 17 20 24 20 8 0 19 7 26 15 10 12 10 15 -3 15 -19
0 -25 16 -19 48 6 32 119 122 154 122 32 0 51 -26 37 -52 -12 -22 -26 -23 -46
-3 -21 21 -37 14 -41 -17 -7 -55 75 -77 122 -33 67 62 49 155 -30 155 -32 0
-33 1 -27 30 5 26 3 30 -16 30 -22 0 -25 -4 -35 -53 -7 -28 -40 -49 -64 -39
-9 3 -11 14 -6 36 8 39 22 56 45 56 25 0 24 17 -1 32 -11 7 -20 18 -20 25 0
20 -28 15 -47 -7z"/>
<path d="M7065 5381 c-3 -11 -15 -23 -26 -26 -10 -4 -19 -13 -19 -20 0 -8 6
-12 14 -9 17 6 36 -24 36 -58 0 -29 -71 -108 -97 -108 -27 0 -63 28 -63 49 0
24 25 34 40 15 15 -17 50 -19 50 -1 0 24 -46 65 -82 72 -31 6 -38 3 -57 -20
-31 -40 -27 -79 12 -121 24 -26 42 -37 67 -39 27 -2 36 -7 38 -23 4 -26 27
-46 43 -37 6 4 9 19 5 36 -7 37 17 64 45 49 14 -8 19 -21 19 -50 0 -37 -7 -45
-32 -41 -17 2 -6 -19 15 -30 12 -6 30 -21 39 -32 l17 -22 25 28 c14 15 30 27
36 27 5 0 10 7 10 15 0 8 -6 12 -14 9 -19 -7 -43 30 -42 64 1 21 7 28 25 30
30 5 51 -20 51 -59 0 -32 11 -42 35 -33 10 4 15 16 13 32 -3 22 1 25 32 27 47
4 84 47 76 89 -14 68 -61 104 -114 85 -30 -10 -52 -44 -45 -66 6 -18 23 -16
45 4 17 15 20 15 35 1 32 -33 -20 -77 -63 -54 -40 21 -103 85 -110 111 -7 27
12 59 28 48 6 -3 9 0 6 8 -2 8 -14 18 -26 24 -12 5 -25 18 -28 27 -7 24 -31
23 -39 -1z"/>
<path d="M3725 5380 c-4 -6 -25 -23 -48 -38 -39 -24 -40 -27 -18 -30 20 -3 22
-8 17 -35 -10 -50 -135 -145 -175 -132 -29 9 -33 33 -9 57 19 19 22 19 30 4
24 -42 71 1 48 44 -15 28 -78 27 -114 -1 -30 -23 -56 -69 -56 -97 0 -26 36
-56 68 -58 24 -1 27 -4 24 -33 -3 -27 0 -32 14 -29 9 1 20 10 24 18 32 69 37
75 64 78 27 3 28 2 22 -25 -11 -42 -34 -73 -56 -73 -26 0 -26 -20 0 -27 11 -3
20 -14 20 -24 0 -25 22 -24 45 1 10 11 23 20 30 20 7 0 20 9 30 20 18 19 17
20 -5 20 -20 0 -22 4 -16 33 7 37 40 69 62 60 15 -5 16 -27 3 -72 -8 -30 31
-23 48 8 13 22 30 33 62 41 63 16 111 66 111 117 0 53 -30 72 -85 52 -32 -12
-75 -54 -75 -73 0 -12 31 -6 55 10 23 15 25 15 32 -1 4 -13 -2 -25 -21 -42
-44 -38 -73 -28 -114 38 -19 31 -20 41 -11 68 7 20 20 33 35 37 27 7 32 22 10
30 -8 3 -16 14 -19 25 -6 21 -22 25 -32 9z"/>
<path d="M9437 2453 c-11 -11 -8 -48 5 -61 21 -21 48 -14 48 12 0 13 -3 31 -6
40 -6 16 -35 22 -47 9z"/>
<path d="M1902 2198 c-18 -18 -15 -56 7 -67 14 -8 21 -6 31 13 23 44 -6 86
-38 54z"/>
<path d="M9349 5283 c-1 -5 -1 -11 0 -15 0 -4 -8 -12 -19 -18 -25 -13 -26 -30
-2 -30 23 0 48 -27 57 -60 8 -35 -32 -94 -67 -98 -34 -4 -78 24 -78 49 0 23
23 25 40 4 12 -14 50 -21 50 -10 0 16 -37 58 -61 71 -59 30 -109 16 -109 -31
0 -58 88 -135 155 -135 14 0 25 -4 25 -9 0 -19 41 -60 55 -55 13 5 12 10 -1
36 -31 60 21 84 56 26 26 -43 25 -66 -2 -71 -21 -3 -19 -5 12 -19 20 -9 44
-26 54 -37 23 -26 35 -26 43 -3 4 9 14 22 22 29 18 13 18 12 -24 33 -28 15
-56 72 -42 86 14 14 58 -8 69 -34 28 -64 76 -88 65 -32 -6 27 -4 30 19 30 75
0 88 64 26 129 -42 44 -82 59 -118 42 -28 -12 -33 -51 -8 -72 14 -11 18 -11
29 4 16 23 31 21 49 -5 19 -26 5 -48 -29 -48 -25 0 -101 48 -151 95 -35 33
-46 75 -19 75 22 0 18 18 -5 25 -11 4 -32 17 -47 31 -26 24 -42 30 -44 17z"/>
<path d="M1409 5264 c-7 -9 -30 -23 -51 -31 -21 -8 -38 -19 -38 -24 0 -5 7 -6
15 -3 23 9 18 -27 -8 -57 -34 -41 -156 -109 -194 -109 -26 0 -33 4 -33 20 0
11 11 27 25 36 24 16 27 16 40 -2 11 -15 18 -17 32 -8 23 14 30 69 10 77 -40
15 -150 -43 -177 -93 -26 -49 1 -96 48 -83 22 5 31 -10 12 -22 -5 -3 -10 -14
-10 -25 0 -28 36 -13 60 25 24 40 66 69 87 61 12 -5 11 -11 -8 -38 -34 -49
-45 -58 -68 -58 -12 0 -21 -6 -21 -15 0 -8 5 -15 10 -15 6 0 10 -9 10 -20 0
-11 7 -20 15 -20 8 0 24 9 35 20 11 11 26 20 34 20 8 0 24 9 37 20 15 12 17
18 8 14 -28 -9 -32 14 -8 49 28 40 38 47 67 47 27 0 28 -19 2 -53 -25 -31 -25
-37 -1 -37 11 0 31 14 44 30 14 17 34 30 44 30 23 0 111 43 139 68 36 31 56
79 43 103 -9 17 -17 20 -46 14 -59 -11 -140 -71 -121 -90 2 -3 21 5 42 16 21
11 40 18 43 15 19 -19 -55 -79 -92 -74 -12 2 -28 19 -39 42 -18 38 -18 40 -1
72 16 30 47 51 67 46 13 -3 16 27 2 32 -8 3 -14 12 -14 21 0 20 -24 19 -41 -1z"/>
<path d="M9855 5180 c-3 -5 -3 -21 1 -35 6 -23 3 -25 -25 -25 -43 0 -68 -38
-51 -79 25 -62 95 -106 147 -92 22 6 28 13 28 36 0 39 -29 56 -49 30 -15 -20
-15 -20 -37 2 -13 12 -19 28 -16 37 7 18 49 21 78 6 25 -14 24 -11 -11 59 -29
57 -53 80 -65 61z"/>
<path d="M927 5050 c-19 -41 -33 -77 -30 -80 6 -7 81 74 87 96 3 11 0 29 -8
39 -13 18 -16 14 -49 -55z"/>
<path d="M10127 2603 c-14 -13 -6 -50 13 -68 20 -18 20 -17 20 28 0 44 -13 60
-33 40z"/>
<path d="M10154 2427 c-2 -7 0 -24 5 -38 9 -22 10 -21 10 14 1 37 -5 48 -15
24z"/>
</g>
</svg>
